PathFileType	3	(X/Y/Z)	C:\Users\koon_\Desktop\
DataRate	CameraRate	NumFrames	NumMarkers	Units	OrigDataRate	OrigDataStartFrame	OrigNumFrames
100.0	100.0	14	27	mm	100.0	3781	5041	
Frame#	Time	get:LFHD			get:RFHD			get:LBHD			get:RBHD			get:C7			get:T10			get:CLAV			get:STRN			get:RBAK			get:LSHO			get:LUPA			get:LELB			get:LFRA			get:LWRA			get:LWRB			get:LFIN			get:RSHO			get:RUPA			get:RELB			get:RFRA			get:RWRA			get:RWRB			get:RFIN			get:LASI			get:RASI			get:LPSI			get:RPSI			
		X1	Y1	Z1	X2	Y2	Z2	X3	Y3	Z3	X4	Y4	Z4	X5	Y5	Z5	X6	Y6	Z6	X7	Y7	Z7	X8	Y8	Z8	X9	Y9	Z9	X10	Y10	Z10	X11	Y11	Z11	X12	Y12	Z12	X13	Y13	Z13	X14	Y14	Z14	X15	Y15	Z15	X16	Y16	Z16	X17	Y17	Z17	X18	Y18	Z18	X19	Y19	Z19	X20	Y20	Z20	X21	Y21	Z21	X22	Y22	Z22	X23	Y23	Z23	X24	Y24	Z24	X25	Y25	Z25	X26	Y26	Z26	X27	Y27	Z27	
3781	37.8	48.643436	1479.7885	42.645012	-92.505676	1442.6691	26.525311	41.020721	1547.8696	-76.615738	-99.957947	1501.483	-93.376419	56.6548	1334.4102	-222.15993	29.788158	1131.7395	-249.31406	4.1869502	1263.3279	-36.696106	-31.95314	1110.1461	1.8396782	0.071467265	1288.037	-271.35904	191.7431	1324.6661	-116.31434	234.38939	1107.8096	-88.487816	259.03964	1005.0748	-166.85698	248.26729	939.72424	-93.476425	215.56169	771.52631	-98.173859	286.47678	781.71881	-120.96245	278.8638	707.23383	-97.446136	-5.7235236	1389.7301	-172.56255	-16.165674	1423.7286	-202.65999	-57.999908	1615.064	-249.19408	-7.1007857	1480.6221	-246.17064	35.617943	1398.0034	-247.32492	84.796524	1438.7363	-218.25586	110.10637	1368.4841	-261.12817	110.44913	888.10547	-41.897587	-174.93553	915.68762	-104.80223	61.449181	930.69916	-239.91415	-23.6796	929.30121	-261.41541
3782	37.81	48.965275	1479.4265	42.992859	-92.209976	1442.1332	27.145794	40.807304	1547.8815	-76.085968	-100.19016	1501.2283	-92.378426	55.464546	1334.2094	-222.24399	29.683704	1131.7371	-249.22112	4.5604701	1263.4274	-36.642765	-31.376232	1110.2753	2.014863	0.050513554	1287.9635	-271.32843	191.73526	1324.9266	-116.75996	234.59941	1107.9816	-89.266861	258.82306	1005.3243	-167.74234	248.49855	940.03955	-94.231949	215.61699	771.7403	-98.594009	286.34253	782.00677	-121.88986	278.97183	707.53741	-98.291733	-5.5051246	1389.6377	-172.90465	-16.161535	1423.6368	-202.93008	-57.506516	1614.7625	-250.54938	-7.2791204	1479.9082	-246.7543	34.723335	1397.0013	-247.26598	84.457611	1437.7308	-218.90111	108.76726	1366.7632	-261.42706	110.91492	888.15948	-41.790592	-174.45528	915.63287	-104.18619	61.916485	930.86542	-240.13152	-23.518942	929.24408	-261.04056
3783	37.82	49.136326	1479.0432	43.283268	-91.993645	1441.593	27.697458	40.590691	1547.8932	-75.554825	-104.64892	1501.9825	-93.939095	55.281563	1334.0784	-222.25587	29.58083	1131.6763	-249.17177	4.8014245	1263.5974	-36.657787	-30.877178	1110.3944	2.1469986	-0.074390166	1287.9399	-271.34735	191.77974	1325.1743	-117.2035	234.92883	1108.2164	-89.97036	258.694	1005.5458	-168.62404	248.76207	940.27557	-95.054527	215.7394	772.05243	-98.982002	286.20847	782.23456	-122.81702	279.15564	707.95074	-98.868317	-5.2289124	1389.5308	-173.31828	-16.099583	1423.5303	-203.2717	-57.251312	1614.479	-251.60355	-7.3345551	1479.4281	-247.20796	34.491024	1396.4208	-247.39052	84.313263	1437.0321	-219.30017	108.43552	1366.3169	-261.69775	111.43317	888.18451	-41.785995	-174.10887	915.60358	-102.07415	61.812817	930.71112	-239.63855	-23.370314	929.22888	-260.76917
3784	37.83	49.204563	1478.7064	43.585117	-91.886421	1441.1184	28.077528	40.408989	1547.8762	-75.036385	-104.70253	1501.8431	-93.302269	55.639755	1334.1801	-222.17291	29.553659	1131.6196	-249.05321	5.0699062	1263.7363	-36.701298	-30.412926	1110.476	2.1944799	-0.15190721	1287.8055	-271.25482	191.84782	1325.381	-117.59625	235.3269	1108.474	-90.506859	258.64658	1005.7949	-169.45609	249.10493	940.52625	-95.944618	215.82906	772.34497	-99.346947	286.168	782.41986	-123.71495	279.4021	708.40063	-99.376549	-5.0720859	1389.4609	-173.6012	-16.157015	1423.4607	-203.48264	-57.28751	1614.3296	-252.44435	-7.1926546	1479.2073	-247.7023	34.844326	1396.3105	-247.62117	84.525841	1437.0636	-219.76233	108.97745	1366.3411	-261.90555	112.02372	888.26941	-41.738316	-173.76454	915.55188	-101.54794	61.862698	930.68018	-239.52542	-23.336079	929.11383	-260.34921
3785	37.84	49.22242	1478.4374	43.836395	-91.863884	1440.7399	28.378902	40.270153	1547.885	-74.614441	-104.82538	1501.7045	-92.915146	56.240135	1334.4659	-222.23195	29.5818	1131.6416	-248.93701	5.2458177	1263.8184	-36.748966	-30.041149	1110.551	2.2094135	-0.078379631	1287.6626	-271.15906	191.93034	1325.5814	-117.89454	235.71866	1108.7206	-90.89299	258.54938	1006.021	-170.30513	249.42442	940.80267	-96.689362	215.86858	772.73041	-99.645958	286.15469	782.60693	-124.51717	279.65118	708.87463	-99.794449	-4.8542643	1389.4204	-173.85716	-16.153454	1423.4208	-203.66661	-57.631561	1614.2609	-253.07858	-6.9307756	1479.3661	-248.17587	35.513908	1396.5673	-248.06885	85.03035	1437.755	-220.21748	109.64877	1366.5396	-262.08716	112.63307	888.3089	-41.766319	-173.30643	915.49908	-100.87348	62.133831	930.78937	-239.77882	-23.348267	929.10791	-260.15363
3786	37.85	49.139771	1478.2512	44.00349	-91.896965	1440.4313	28.450104	40.111565	1547.9078	-74.272469	-104.84759	1501.6064	-92.640831	56.959259	1334.8483	-222.05699	29.592382	1131.6842	-248.8286	5.4407325	1263.8674	-36.80032	-29.698324	1110.5881	2.5502083	0.015059488	1287.588	-271.06943	192.032	1325.7517	-118.15917	236.13544	1108.9506	-91.223412	258.50592	1006.2507	-171.0453	249.70711	941.05206	-97.412933	216.00508	773.08923	-99.840118	286.13446	782.77539	-125.16135	279.82779	709.31104	-100.04987	-4.7618728	1389.3772	-173.88477	-16.275322	1423.3781	-203.62216	-58.125549	1614.1599	-253.44405	-6.6108031	1479.6702	-248.51244	36.202747	1397.019	-248.38206	85.569298	1438.5593	-220.56654	110.35838	1366.895	-262.19217	113.16066	888.33246	-41.851265	-172.67406	915.27527	-100.92834	62.146999	930.75677	-239.71281	-23.403065	929.00708	-259.82492
3787	37.86	49.018311	1478.1577	44.136063	-92.003304	1440.2769	28.500484	40.018192	1547.8774	-74.043671	-104.94254	1501.5243	-92.550911	57.738316	1335.1824	-222.12593	29.645136	1131.7028	-248.6696	5.6255383	1263.8885	-36.7131	-29.356203	1110.6034	2.8507326	0.011155586	1287.5137	-270.88318	192.15404	1325.9431	-118.33031	236.45213	1109.1929	-91.723503	258.4953	1006.4733	-171.74179	249.95856	941.29712	-98.098679	216.16455	773.54059	-100.00814	286.13193	782.96112	-125.79307	280.07278	709.76892	-100.21837	-4.7249775	1389.3956	-173.95108	-16.452686	1423.3969	-203.61649	-58.726025	1614.0679	-253.83592	-6.4922466	1479.9028	-248.67024	36.811806	1397.4167	-248.26799	86.043518	1439.4949	-220.85547	111.06071	1367.3881	-262.1842	113.70734	888.37079	-41.876575	-172.31841	915.18121	-100.47398	62.132622	930.69055	-239.63383	-23.495853	928.96228	-259.69366
3788	37.87	48.850914	1478.1652	44.274834	-92.161209	1440.166	28.424091	39.919323	1547.8741	-73.976227	-104.9697	1501.4819	-92.619614	58.576714	1335.5787	-221.93279	29.751154	1131.7271	-248.57419	5.8123755	1263.8983	-36.640697	-29.008173	1110.5697	3.0098691	-0.041791581	1287.457	-270.81543	192.19319	1326.1445	-118.5452	236.67137	1109.3961	-92.295143	258.48572	1006.6836	-172.42427	250.26256	941.57227	-98.775253	216.41135	773.98218	-100.08665	286.20407	783.14465	-126.45115	280.43484	710.20697	-100.36889	-4.7483163	1389.3657	-173.93372	-16.690287	1423.3677	-203.52713	-59.33186	1613.9479	-254.08777	-6.4739451	1480.0133	-248.55614	37.309418	1397.6926	-247.9442	86.460335	1440.2535	-221.0853	111.60022	1367.9536	-262.08362	114.27404	888.4447	-41.913914	-171.91934	915.08698	-99.686707	62.05426	930.62744	-239.62682	-23.624529	928.86261	-259.41583
3789	37.88	48.656414	1478.2751	44.296688	-92.304787	1440.2278	28.328417	39.875961	1547.8864	-73.975403	-105.00372	1501.4463	-92.814819	59.35318	1335.821	-221.40964	29.825382	1131.7031	-248.48694	5.980442	1263.923	-36.453606	-28.584423	1110.5458	3.1190355	-0.16603293	1287.3896	-270.74094	192.2495	1326.3169	-118.77975	236.76558	1109.551	-92.994156	258.57758	1006.9035	-172.99866	250.54779	941.84344	-99.326637	216.69609	774.40479	-100.08392	286.29303	783.34808	-127.00407	280.72314	710.59723	-100.50264	-4.7719111	1389.3359	-173.91608	-16.928139	1423.3384	-203.43748	-59.947952	1613.8074	-254.13159	-6.5123487	1480.0581	-248.26349	37.650475	1397.8871	-247.32539	86.775238	1440.8766	-221.07011	112.04474	1368.5862	-261.83466	114.83957	888.44141	-42.038876	-171.66174	915.01575	-99.337784	62.014256	930.55408	-239.65207	-23.729761	928.73352	-259.14197
3790	37.89	48.452557	1478.4513	44.309376	-92.479553	1440.3541	28.185843	39.809444	1547.9282	-74.099922	-101.47404	1500.7928	-91.380989	60.073139	1336.166	-220.9424	29.816341	1131.674	-248.39575	6.1519208	1263.936	-36.455933	-28.134714	1110.4803	3.1593919	-0.33671269	1287.3003	-270.64105	192.24489	1326.5488	-119.05948	236.87291	1109.6862	-93.643494	258.63422	1007.1185	-173.50078	250.78651	942.15027	-99.719437	216.94351	774.76807	-100.05707	286.42874	783.53937	-127.45271	281.04385	710.97162	-100.61179	-4.7974586	1389.244	-173.88692	-17.167946	1423.2466	-203.33632	-60.589828	1613.6222	-254.08122	-6.5262952	1480.0795	-247.90758	38.135635	1398.113	-246.65285	87.069946	1441.5123	-220.82271	112.62429	1369.2495	-261.37292	115.28594	888.44	-42.212872	-171.35628	914.91315	-98.761986	61.945377	930.45508	-239.64339	-23.821711	928.64429	-259.05121
3791	37.9	48.332058	1478.6735	44.18845	-92.59005	1440.5354	28.014322	39.782806	1547.9567	-74.299255	-101.58475	1500.7899	-91.627365	60.793545	1336.4905	-220.57881	29.768194	1131.6282	-248.33104	6.2942872	1263.9218	-36.339626	-27.629128	1110.4673	3.5026834	-0.56701398	1287.2117	-270.5329	192.23997	1326.7131	-119.36681	236.97568	1109.8483	-94.207695	258.72784	1007.3301	-173.93752	251.06364	942.44373	-100.1101	217.31886	775.09576	-99.965027	286.58313	783.74097	-127.8096	281.43066	711.33759	-100.72313	-4.8846564	1389.1566	-173.89703	-17.469402	1423.1598	-203.27443	-61.13092	1613.4521	-254.11537	-6.4366655	1480.1846	-247.51285	38.713692	1398.4613	-245.99007	87.407082	1442.1769	-220.26752	113.37052	1369.9789	-260.60159	115.71986	888.43933	-42.373615	-170.97884	914.84869	-98.225441	61.890728	930.36102	-239.71376	-23.906425	928.5708	-258.9183
3792	37.91	48.227695	1478.8951	44.041939	-92.702599	1440.7814	27.883671	39.737179	1548.0066	-74.60672	-101.57336	1500.8831	-91.882271	61.574127	1336.8365	-220.13071	29.665541	1131.6343	-248.27852	6.5184436	1263.9197	-36.147942	-27.206623	1110.4377	3.5912087	-0.91289443	1287.0774	-270.43301	192.21828	1326.9467	-119.66694	237.09715	1110.0347	-94.708366	258.7843	1007.5426	-174.36084	251.33258	942.72247	-100.44317	217.63788	775.3764	-99.865982	286.72922	783.94849	-128.12596	281.89099	711.73352	-100.72031	-4.9716978	1389.0348	-173.89429	-17.770704	1423.0385	-203.19968	-61.81078	1612.9092	-253.53163	-6.1946397	1480.3328	-247.0876	39.414009	1398.8932	-245.21132	87.781418	1442.8483	-219.51204	114.32844	1370.8418	-259.68073	116.22636	888.44098	-42.512508	-170.77351	914.84906	-96.580605	61.869415	930.27246	-239.73785	-24.013885	928.37451	-258.57849
3793	37.92	48.152817	1479.1989	43.821384	-92.813911	1441.0381	27.738754	39.636387	1548.0868	-74.99884	-101.60524	1500.951	-92.164558	62.296227	1337.241	-219.96419	29.512661	1131.5963	-248.23038	6.7676511	1263.9434	-36.174561	-26.705458	1110.3873	3.7760031	-1.2382318	1286.9846	-270.36053	192.17143	1327.1609	-120.06744	237.30002	1110.2676	-95.080292	258.84479	1007.7197	-174.68765	251.65477	943.00641	-100.77354	217.99312	775.6972	-99.651024	286.95215	784.18506	-128.31374	282.44363	712.10492	-100.73266	-5.116416	1388.9111	-173.91853	-18.129684	1422.9153	-203.15193	-62.198013	1613.0424	-253.80513	-5.9065504	1480.5092	-246.75546	40.140709	1399.3265	-244.56654	88.056732	1443.5027	-218.61935	115.31915	1371.6965	-258.61935	116.71883	888.48865	-42.712723	-170.41298	914.71338	-97.375496	61.798931	930.18079	-239.78329	-24.144203	928.31604	-258.44296
3794	37.93	48.051445	1479.517	43.591896	-92.842773	1441.3459	27.659954	39.540779	1548.1631	-75.332001	-101.12614	1500.7445	-91.858406	63.01807	1337.6609	-219.69507	29.284601	1131.5785	-248.06465	6.9776669	1263.9657	-36.019222	-26.151676	1110.3809	4.0161915	-1.6135681	1286.8655	-270.28387	192.12482	1327.3521	-120.48586	237.46651	1110.5964	-95.315369	258.84845	1007.9228	-174.99052	251.96632	943.27539	-101.02187	218.43141	776.01105	-99.356178	287.21091	784.44922	-128.43939	282.96576	712.47626	-100.63944	-5.2618074	1388.8224	-173.95514	-18.489336	1422.8271	-203.11653	-62.632343	1612.8848	-253.59479	-5.672967	1480.7252	-246.36272	40.789803	1399.8029	-244.27251	88.256943	1444.0938	-217.67455	116.28783	1372.6527	-257.61331	117.17718	888.47009	-42.883781	-169.86922	914.54193	-96.027969	61.493488	929.95209	-239.46144	-24.2176	928.21472	-258.23898
